<?xml version="1.0" encoding="UTF-8" standalone="no"?>
<!-- Created with Inkscape (http://www.inkscape.org/) -->

<svg
   xmlns:dc="http://purl.org/dc/elements/1.1/"
   xmlns:cc="http://creativecommons.org/ns#"
   xmlns:rdf="http://www.w3.org/1999/02/22-rdf-syntax-ns#"
   xmlns:svg="http://www.w3.org/2000/svg"
   xmlns="http://www.w3.org/2000/svg"
   xmlns:sodipodi="http://sodipodi.sourceforge.net/DTD/sodipodi-0.dtd"
   xmlns:inkscape="http://www.inkscape.org/namespaces/inkscape"
   width="97.499916mm"
   height="134.2762mm"
   viewBox="0 0 345.47214 475.78181"
   id="svg2"
   version="1.1"
   inkscape:version="0.91 r13725"
   sodipodi:docname="doc-icons.svg">
  <defs
     id="defs4" />
  <sodipodi:namedview
     id="base"
     pagecolor="#ffffff"
     bordercolor="#666666"
     borderopacity="1.0"
     inkscape:pageopacity="0.0"
     inkscape:pageshadow="2"
     inkscape:zoom="0.98994949"
     inkscape:cx="-213.6733"
     inkscape:cy="333.54759"
     inkscape:document-units="px"
     inkscape:current-layer="layer1"
     showgrid="false"
     inkscape:window-width="1680"
     inkscape:window-height="995"
     inkscape:window-x="0"
     inkscape:window-y="0"
     inkscape:window-maximized="1"
     fit-margin-top="0"
     fit-margin-left="0"
     fit-margin-right="0"
     fit-margin-bottom="0" />
  <metadata
     id="metadata7">
    <rdf:RDF>
      <cc:Work
         rdf:about="">
        <dc:format>image/svg+xml</dc:format>
        <dc:type
           rdf:resource="http://purl.org/dc/dcmitype/StillImage" />
        <dc:title />
      </cc:Work>
    </rdf:RDF>
  </metadata>
  <g
     inkscape:label="Layer 1"
     inkscape:groupmode="layer"
     id="layer1"
     transform="translate(-162.63457,-166.45844)">
    <g
       id="g4343"
       transform="translate(12.121827,-31.314729)">
      <circle
         r="62.629463"
         cy="236.15891"
         cx="610.31134"
         id="path4182"
         style="fill:#e7e8de;fill-opacity:1;stroke:none;stroke-width:3;stroke-linecap:round;stroke-miterlimit:4;stroke-dasharray:none;stroke-opacity:1" />
      <path
         sodipodi:nodetypes="ccc"
         inkscape:connector-curvature="0"
         id="path4184"
         d="M 573.14949,228.33041 601.53255,277.14925 647.37532,194.99684"
         style="fill:none;fill-rule:evenodd;stroke:#60d073;stroke-width:22.39972496;stroke-linecap:butt;stroke-linejoin:bevel;stroke-miterlimit:4;stroke-dasharray:none;stroke-opacity:1" />
    </g>
    <rect
       style="fill:#596ea7;fill-opacity:1;stroke:none;stroke-width:3;stroke-linecap:round;stroke-miterlimit:4;stroke-dasharray:none;stroke-opacity:1"
       id="rect4136"
       width="318.19806"
       height="427.29453"
       x="162.63457"
       y="214.94574"
       inkscape:export-xdpi="90"
       inkscape:export-ydpi="90" />
    <g
       id="g4365"
       inkscape:export-xdpi="90"
       inkscape:export-ydpi="90">
      <rect
         y="272.52444"
         x="201.02037"
         height="30.304577"
         width="240.41631"
         id="rect4138"
         style="fill:#bddadb;fill-opacity:1;stroke:none;stroke-width:3;stroke-linecap:round;stroke-miterlimit:4;stroke-dasharray:none;stroke-opacity:1" />
      <rect
         y="369.7012"
         x="210.11172"
         height="12.121831"
         width="221.2234"
         id="rect4138-3-6"
         style="fill:#d2d9e6;fill-opacity:1;stroke:none;stroke-width:3;stroke-linecap:round;stroke-miterlimit:4;stroke-dasharray:none;stroke-opacity:1" />
      <rect
         y="467.07986"
         x="210.11172"
         height="12.121831"
         width="221.2234"
         id="rect4138-3-7"
         style="fill:#d2d9e6;fill-opacity:1;stroke:none;stroke-width:3;stroke-linecap:round;stroke-miterlimit:4;stroke-dasharray:none;stroke-opacity:1" />
      <rect
         y="418.39053"
         x="210.11172"
         height="12.121831"
         width="221.2234"
         id="rect4138-3-5"
         style="fill:#d2d9e6;fill-opacity:1;stroke:none;stroke-width:3;stroke-linecap:round;stroke-miterlimit:4;stroke-dasharray:none;stroke-opacity:1" />
      <rect
         y="564.45856"
         x="210.11172"
         height="12.121831"
         width="221.2234"
         id="rect4138-3-6-3"
         style="fill:#d2d9e6;fill-opacity:1;stroke:none;stroke-width:3;stroke-linecap:round;stroke-miterlimit:4;stroke-dasharray:none;stroke-opacity:1" />
      <rect
         y="515.76917"
         x="210.11172"
         height="12.121831"
         width="221.2234"
         id="rect4138-3-6-5"
         style="fill:#d2d9e6;fill-opacity:1;stroke:none;stroke-width:3;stroke-linecap:round;stroke-miterlimit:4;stroke-dasharray:none;stroke-opacity:1" />
    </g>
    <g
       id="g4501"
       transform="translate(178.797,112.12693)">
      <circle
         inkscape:export-ydpi="90"
         inkscape:export-xdpi="90"
         r="62.629463"
         cy="233.12848"
         cx="460.80875"
         id="path4182-2"
         style="fill:#e7e8de;fill-opacity:1;stroke:none;stroke-width:3;stroke-linecap:round;stroke-miterlimit:4;stroke-dasharray:none;stroke-opacity:1" />
      <g
         inkscape:export-ydpi="90"
         inkscape:export-xdpi="90"
         transform="translate(-159.42489,-155.56351)"
         id="g4288">
        <path
           style="fill:none;fill-rule:evenodd;stroke:#d84c38;stroke-width:19;stroke-linecap:butt;stroke-linejoin:miter;stroke-miterlimit:4;stroke-dasharray:none;stroke-opacity:1"
           d="M 581.84784,427.07778 658.61944,350.30619"
           id="path4244"
           inkscape:connector-curvature="0" />
        <g
           id="g4280">
          <path
             inkscape:connector-curvature="0"
             id="path4244-1"
             d="M 658.61944,427.07778 581.84785,350.30619"
             style="fill:none;fill-rule:evenodd;stroke:#d84c38;stroke-width:19;stroke-linecap:butt;stroke-linejoin:miter;stroke-miterlimit:4;stroke-dasharray:none;stroke-opacity:1" />
        </g>
      </g>
    </g>
    <g
       id="g4351"
       transform="translate(2.020312,-507.09659)">
      <circle
         r="62.629463"
         cy="570.51947"
         cx="617.20319"
         id="path4182-2-2"
         style="fill:#e7e8de;fill-opacity:1;stroke:none;stroke-width:3;stroke-linecap:round;stroke-miterlimit:4;stroke-dasharray:none;stroke-opacity:1" />
      <g
         transform="matrix(1.4115789,0,0,1.4115789,507.50374,45.541285)"
         id="g4347">
        <path
           style="fill:none;fill-opacity:1;fill-rule:evenodd;stroke:#bb85a4;stroke-width:10.39999962;stroke-linecap:round;stroke-linejoin:round;stroke-miterlimit:4;stroke-dasharray:none;stroke-opacity:1"
           d="M 63.571429,352.36221 C 62.500243,344.72456 68.222807,338.62098 75.772148,338.4405 80.013215,338.73403 86.681477,339.23841 89.707187,343.23816 92.336818,347.68807 92.273725,353.35437 91.414056,358.30748 89.853476,364.32378 84.755697,365.91948 81.492126,370.96094 77.89217,375.56709 76.299768,383.39751 75.706382,389.1578"
           id="path4323"
           inkscape:connector-curvature="0"
           sodipodi:nodetypes="cccccc" />
        <circle
           style="fill:#bb85a4;fill-opacity:1;stroke:none;stroke-width:22;stroke-linecap:round;stroke-linejoin:round;stroke-miterlimit:4;stroke-dasharray:none;stroke-opacity:1"
           id="path4334"
           cx="76.071426"
           cy="404.14792"
           r="6.4285717" />
      </g>
    </g>
    <g
       id="g4272"
       inkscape:export-xdpi="90"
       inkscape:export-ydpi="90">
      <g
         id="g4266">
        <path
           inkscape:connector-curvature="0"
           style="fill:#76b1b4;fill-opacity:1;stroke:none;stroke-width:40;stroke-linecap:round;stroke-linejoin:round;stroke-miterlimit:4;stroke-dasharray:none;stroke-opacity:1"
           d="M -154.31424,297.29094 -91.305637,406.42638 -83.853267,378.61616 -55.089677,386.32351 -118.44783,276.58256 -154.31424,297.29094 Z"
           id="rect4537-3" />
        <path
           style="fill:#76b1b4;fill-opacity:1;stroke:none;stroke-width:40;stroke-linecap:round;stroke-linejoin:round;stroke-miterlimit:4;stroke-dasharray:none;stroke-opacity:1"
           d="M -235.62079,275.51302 -298.63055,384.64779 -270.82001,377.19662 -263.11297,405.96029 -199.7536,296.22005 -235.62079,275.51302 Z"
           id="rect4537"
           inkscape:connector-curvature="0" />
        <path
           style="fill:#e4dc9b;fill-opacity:1;stroke:none;stroke-width:10.39999962;stroke-linecap:round;stroke-linejoin:round;stroke-miterlimit:4;stroke-dasharray:none;stroke-opacity:1"
           d="M -159.04488,82.840173 C -169.80335,83.156468 -180.78232,98.625789 -191.5509,100.19695 -203.03738,101.87285 -219.2725,88.461771 -229.6789,93.605169 -240.08532,98.748569 -239.29233,119.79161 -247.60002,127.89903 -255.90771,136.00645 -276.92494,134.70055 -282.32069,144.97839 -287.71644,155.25622 -274.70513,171.81359 -276.66076,183.25577 -278.6164,194.69795 -296.3882,205.99439 -294.71229,217.48087 -293.03638,228.96735 -272.77959,234.71489 -267.63619,245.1213 -262.49279,255.52771 -270.22833,275.11234 -262.12091,283.42003 -254.01348,291.72772 -234.24703,284.47142 -223.9692,289.86717 -213.69136,295.26292 -208.43961,315.65392 -196.99742,317.60956 -185.55524,319.5652 -173.82726,302.0757 -162.34078,300.39979 -150.8543,298.72389 -134.61918,312.13497 -124.21278,306.99157 -113.80637,301.84817 -114.60172,280.80513 -106.29403,272.69771 -97.986342,264.59029 -76.969117,265.89619 -71.573366,255.61836 -66.177616,245.34052 -79.18656,228.78315 -77.230922,217.34097 -75.275284,205.8988 -57.505865,194.60235 -59.181767,183.11587 -60.857669,171.62939 -81.114469,165.88186 -86.257872,155.47544 -91.401263,145.06903 -83.663353,125.4844 -91.770777,117.17672 -99.878202,108.86903 -119.64703,116.12533 -129.92486,110.72957 -140.20269,105.33383 -145.45446,84.942822 -156.89663,82.987184 -157.61176,82.864957 -158.32766,82.819086 -159.04488,82.840173 Z M -177.56116,116.90641 A 82.778719,82.778719 0 0 1 -94.782132,199.68543 82.778719,82.778719 0 0 1 -177.56116,282.46446 82.778719,82.778719 0 0 1 -260.33781,199.68543 82.778719,82.778719 0 0 1 -177.56116,116.90641 Z"
           id="path4514"
           inkscape:connector-curvature="0" />
        <circle
           style="fill:#566ba2;fill-opacity:1;stroke:none;stroke-width:10.39999962;stroke-linecap:round;stroke-linejoin:round;stroke-miterlimit:4;stroke-dasharray:none;stroke-opacity:1"
           id="path4508-7"
           cx="-176.94702"
           cy="200.29855"
           r="71.215752" />
      </g>
      <g
         transform="matrix(1.2692308,0,0,1.2692308,54.587083,-363.28573)"
         id="g4243">
        <rect
           style="opacity:0.95;fill:#e2e49b;fill-opacity:0.45508979;stroke:none;stroke-width:3;stroke-linecap:round;stroke-miterlimit:4;stroke-dasharray:none;stroke-opacity:1"
           id="rect4169"
           width="288.90363"
           height="64.649765"
           x="-330.31985"
           y="403.84424" />
        <text
           xml:space="preserve"
           style="font-style:normal;font-variant:normal;font-weight:600;font-stretch:normal;font-size:51.2057457px;line-height:125%;font-family:FreeSans;-inkscape-font-specification:'FreeSans, Semi-Bold';text-align:start;letter-spacing:0px;word-spacing:0px;writing-mode:lr-tb;text-anchor:start;opacity:0.97000002;fill:#000000;fill-opacity:1;stroke:none;stroke-width:1px;stroke-linecap:butt;stroke-linejoin:miter;stroke-opacity:1"
           x="-305.36426"
           y="454.55197"
           id="text4581"
           sodipodi:linespacing="125%"><tspan
             sodipodi:role="line"
             x="-305.36426"
             y="454.55197"
             id="tspan4585">EtherCert</tspan></text>
      </g>
    </g>
  </g>
</svg>
